<?xml version="1.0" encoding="utf-8"?>
<!-- Generator: Adobe Illustrator 21.1.0, SVG Export Plug-In . SVG Version: 6.00 Build 0)  -->
<svg version="1.1" id="Capa_1" xmlns="http://www.w3.org/2000/svg" xmlns:xlink="http://www.w3.org/1999/xlink" x="0px" y="0px"
	 viewBox="0 0 60 60" style="enable-background:new 0 0 60 60;" xml:space="preserve">
<style type="text/css">
	.st0{fill:#FFFFFF;}
</style>
<g>
	<path d="M29.9,47.2c-2.5-0.1-5-0.1-7.5-0.2c-2.3-0.1-4.4-0.8-6.1-2.5c-1.6-1.5-2.4-3.5-2.7-5.6c-0.1-1.6-0.2-3.2-0.2-4.8
		c0-2.8,0-5.7,0-8.6c0-1.5,0.1-3,0.5-4.6c1-3.7,3.5-5.9,7.1-6.4c1.7-0.3,3.6-0.3,5.4-0.3c2.8-0.1,5.7,0,8.6,0c1.5,0,3,0.1,4.4,0.4
		c3.7,1,6,3.4,6.6,7.2c0.3,1.7,0.3,3.6,0.3,5.4c0.1,2.8,0,5.7,0,8.6c0,1.5-0.1,3-0.5,4.6c-1,3.7-3.5,5.9-7.1,6.4
		C37,47,35.2,47,33.4,47.1C32.3,47.2,31.1,47.2,29.9,47.2C29.9,47.2,29.9,47.2,29.9,47.2z M43.6,30.7L43.6,30.7
		c-0.1-1.7-0.1-3.3-0.1-5c0-1.1-0.1-2.3-0.3-3.4c-0.4-2.4-1.7-4-4.1-4.7c-0.7-0.2-1.4-0.3-2.1-0.3c-3.7-0.1-7.5-0.1-11.2-0.1
		c-1.2,0-2.5,0.1-3.7,0.2c-2.9,0.3-4.8,2.1-5.3,5c-0.2,1.5-0.3,2.9-0.3,4.3c-0.1,2.6,0,5.3,0,8c0,1.3,0.1,2.6,0.2,4
		c0.3,2.9,2.1,4.8,5,5.3c1.5,0.2,2.9,0.3,4.4,0.3c2.9,0,5.8,0,8.7,0c1.2,0,2.4-0.1,3.5-0.3c2.4-0.4,4-1.7,4.6-4.1
		c0.2-0.7,0.3-1.5,0.3-2.1C43.5,35.3,43.5,33,43.6,30.7z M21.5,30.7c0-4.7,3.8-8.5,8.5-8.5c4.7,0,8.5,3.8,8.5,8.5s-3.8,8.5-8.5,8.5
		C25.3,39.1,21.5,35.3,21.5,30.7z M30,25.1c-3,0-5.5,2.4-5.5,5.4c0,3,2.4,5.5,5.5,5.5s5.5-2.4,5.5-5.5C35.4,27.6,33,25.1,30,25.1z
		 M40.8,21.8c0-1.1-0.9-2-2-2c-1.1,0-1.9,0.9-1.9,2s0.9,1.9,2,1.9C39.9,23.8,40.8,22.9,40.8,21.8z"/>
	<path class="st0" d="M29.9,45.9c-2.5-0.1-5-0.1-7.5-0.2c-2.3-0.1-4.4-0.8-6.1-2.5c-1.6-1.5-2.4-3.5-2.7-5.6
		c-0.1-1.6-0.2-3.2-0.2-4.8c0-2.8,0-5.7,0-8.6c0-1.5,0.1-3,0.5-4.6c1-3.7,3.5-5.9,7.1-6.4c1.7-0.3,3.6-0.3,5.4-0.3
		c2.8-0.1,5.7,0,8.6,0c1.5,0,3,0.1,4.4,0.4c3.7,1,6,3.4,6.6,7.2c0.3,1.7,0.3,3.6,0.3,5.4c0.1,2.8,0,5.7,0,8.6c0,1.5-0.1,3-0.5,4.6
		c-1,3.7-3.5,5.9-7.1,6.4c-1.8,0.3-3.6,0.3-5.4,0.3C32.3,45.9,31.1,45.8,29.9,45.9C29.9,45.8,29.9,45.9,29.9,45.9z M43.6,29.3
		L43.6,29.3c-0.1-1.7-0.1-3.3-0.1-5c0-1.1-0.1-2.3-0.3-3.4c-0.4-2.4-1.7-4-4.1-4.7c-0.7-0.2-1.4-0.3-2.1-0.3
		c-3.7-0.1-7.5-0.1-11.2-0.1c-1.2,0-2.5,0.1-3.7,0.2c-2.9,0.3-4.8,2.1-5.3,5c-0.2,1.5-0.3,2.9-0.3,4.3c-0.1,2.6,0,5.3,0,8
		c0,1.3,0.1,2.6,0.2,4c0.3,2.9,2.1,4.8,5,5.3c1.5,0.2,2.9,0.3,4.4,0.3c2.9,0,5.8,0,8.7,0c1.2,0,2.4-0.1,3.5-0.3
		c2.4-0.4,4-1.7,4.6-4.1c0.2-0.7,0.3-1.5,0.3-2.1C43.5,33.9,43.5,31.6,43.6,29.3z M21.5,29.3c0-4.7,3.8-8.5,8.5-8.5
		c4.7,0,8.5,3.8,8.5,8.5s-3.8,8.5-8.5,8.5C25.3,37.8,21.5,33.9,21.5,29.3z M30,23.8c-3,0-5.5,2.4-5.5,5.4c0,3,2.4,5.5,5.5,5.5
		s5.5-2.4,5.5-5.5C35.4,26.3,33,23.8,30,23.8z M40.8,20.4c0-1.1-0.9-2-2-2c-1.1,0-1.9,0.9-1.9,2c0,1.1,0.9,1.9,2,1.9
		C39.9,22.4,40.8,21.5,40.8,20.4z"/>
</g>
</svg>
