<?xml version="1.0" encoding="utf-8"?>
<!-- Generator: Adobe Illustrator 21.1.0, SVG Export Plug-In . SVG Version: 6.00 Build 0)  -->
<svg version="1.1" id="Capa_1" xmlns="http://www.w3.org/2000/svg" xmlns:xlink="http://www.w3.org/1999/xlink" x="0px" y="0px"
	 viewBox="0 0 60 60" style="enable-background:new 0 0 60 60;" xml:space="preserve">
<style type="text/css">
	.st0{fill:#FFFFFF;}
</style>
<g>
	<path d="M44.7,14.3H15.3c-1,0-1.8,0.8-1.8,1.8v29.4c0,1,0.8,1.8,1.8,1.8h15.9V34.6h-4.4v-5h4.3v-3.7c0-4.2,2.6-6.6,6.4-6.6
		c1.8,0,3.4,0.2,3.8,0.2V24h-2.6c-2.1,0-2.5,1-2.5,2.4v3.2h5l-0.6,5h-4.3v12.8h8.4c1,0,1.8-0.8,1.8-1.8V16.2
		C46.5,15.1,45.7,14.3,44.7,14.3"/>
	<path class="st0" d="M44.7,12.7H15.3c-1,0-1.8,0.8-1.8,1.8v29.4c0,1,0.8,1.8,1.8,1.8h15.9V33h-4.4v-5h4.3v-3.7
		c0-4.2,2.6-6.6,6.4-6.6c1.8,0,3.4,0.2,3.8,0.2v4.5h-2.6c-2.1,0-2.5,1-2.5,2.4V28h5l-0.6,5h-4.3v12.8h8.4c1,0,1.8-0.8,1.8-1.8V14.6
		C46.5,13.5,45.7,12.7,44.7,12.7"/>
</g>
</svg>
