<?xml version="1.0" encoding="utf-8"?>
<!-- Generator: Adobe Illustrator 21.1.0, SVG Export Plug-In . SVG Version: 6.00 Build 0)  -->
<svg version="1.1" id="Capa_1" xmlns="http://www.w3.org/2000/svg" xmlns:xlink="http://www.w3.org/1999/xlink" x="0px" y="0px"
	 viewBox="0 0 60 60" style="enable-background:new 0 0 60 60;" xml:space="preserve">
<style type="text/css">
	.st0{fill:#FFFFFF;}
</style>
<g>
	<path d="M47,20.1c-1.2,0.5-2.6,0.9-4,1.1c1.4-0.8,2.5-2.2,3.1-3.9c-1.4,0.9-2.9,1.4-4.4,1.7c-1.3-1.4-3.1-2.2-5.1-2.2
		c-3.9,0-7,3.1-7,7c0,0.5,0.1,1.1,0.2,1.5c-5.8-0.3-11-3.1-14.4-7.2c-0.5,0.9-0.9,2.2-0.9,3.5c0,2.5,1.2,4.5,3.1,5.9
		c-1.2-0.1-2.2-0.4-3.1-0.9v0.1c0,3.4,2.4,6.2,5.5,6.9c-0.6,0.2-1.2,0.3-1.9,0.3c-0.5,0-0.9-0.1-1.3-0.2c0.8,2.8,3.5,4.8,6.5,4.8
		c-2.4,1.9-5.4,3-8.7,3c-0.5,0-1.1,0-1.7-0.1c3.1,2,6.7,3.1,10.7,3.1c12.8,0,19.8-10.6,19.8-19.8c0-0.3,0-0.6,0-0.9
		C44.9,22.8,46.1,21.5,47,20.1z"/>
	<path class="st0" d="M47,18.8c-1.2,0.5-2.6,0.9-4,1.1c1.4-0.9,2.5-2.2,3.1-3.9c-1.4,0.8-2.9,1.4-4.4,1.7c-1.4-1.3-3.1-2.1-5.1-2.1
		c-3.9,0-7,3.1-7,7c0,0.5,0.1,1.1,0.2,1.5c-5.8-0.3-11-3.1-14.4-7.2c-0.5,0.9-0.9,2.2-0.9,3.5c0,2.5,1.2,4.5,3.1,5.9
		c-1.2-0.1-2.2-0.4-3.1-0.9v0.1c0,3.4,2.4,6.2,5.5,6.9c-0.6,0.2-1.2,0.3-1.9,0.3c-0.5,0-0.9-0.1-1.3-0.2c0.9,2.8,3.5,4.8,6.5,4.8
		c-2.4,1.9-5.4,3-8.7,3c-0.5,0-1.1,0-1.7-0.1c3.1,2,6.7,3.1,10.7,3.1c12.8,0,19.8-10.6,19.8-19.8c0-0.3,0-0.6,0-0.9
		C44.9,21.4,46.1,20.1,47,18.8z"/>
</g>
</svg>
