<?xml version="1.0" encoding="utf-8"?>
<!-- Generator: Adobe Illustrator 21.1.0, SVG Export Plug-In . SVG Version: 6.00 Build 0)  -->
<svg version="1.1" id="Capa_1" xmlns="http://www.w3.org/2000/svg" xmlns:xlink="http://www.w3.org/1999/xlink" x="0px" y="0px"
	 viewBox="0 0 60 60" style="enable-background:new 0 0 60 60;" xml:space="preserve">
<style type="text/css">
	.st0{fill:#FFFFFF;}
</style>
<g>
	<g>
		<path d="M21.2,18.3c0,1.9-1.4,3.4-3.7,3.4c-2.2,0-3.6-1.5-3.6-3.4c0-1.9,1.5-3.4,3.6-3.4C19.8,14.9,21.2,16.4,21.2,18.3z
			 M14.2,46.4v-22H21v21.9L14.2,46.4L14.2,46.4z"/>
		<path d="M25.1,31.5c0-2.7-0.1-5-0.2-7h5.9l0.3,3h0.2c0.9-1.5,3.1-3.6,6.8-3.6c4.5,0,7.9,3,7.9,9.5v13h-6.8V34.2
			c0-2.8-1-4.8-3.4-4.8c-1.9,0-3,1.3-3.5,2.6C32,32.5,32,33.1,32,33.8v12.7h-6.9V31.5z"/>
	</g>
	<g>
		<path class="st0" d="M21.2,17c0,1.9-1.4,3.4-3.7,3.4c-2.2,0-3.6-1.5-3.6-3.4c0-1.9,1.5-3.4,3.6-3.4C19.8,13.6,21.2,15.1,21.2,17z
			 M14.2,45.1v-22H21V45L14.2,45.1L14.2,45.1z"/>
		<path class="st0" d="M25.1,30.1c0-2.7-0.1-5-0.2-7h5.9l0.3,3h0.2c0.9-1.5,3.1-3.6,6.8-3.6c4.5,0,7.9,3,7.9,9.5v13h-6.8V32.9
			c0-2.8-1-4.8-3.4-4.8c-1.9,0-3,1.3-3.5,2.6C32,31.2,32,31.8,32,32.5v12.7h-6.9V30.1z"/>
	</g>
</g>
</svg>
