<?xml version="1.0" encoding="utf-8"?>
<!-- Generator: Adobe Illustrator 21.1.0, SVG Export Plug-In . SVG Version: 6.00 Build 0)  -->
<svg version="1.1" id="Capa_1" xmlns="http://www.w3.org/2000/svg" xmlns:xlink="http://www.w3.org/1999/xlink" x="0px" y="0px"
	 viewBox="0 0 60 60" style="enable-background:new 0 0 60 60;" xml:space="preserve">
<style type="text/css">
	.st0{fill:#FFFFFF;}
</style>
<g>
	<path d="M11.4,20.3c1.1,0.6,16.1,8.6,16.6,8.9c0.5,0.3,1.3,0.4,2,0.4s1.4-0.1,2-0.4c0.5-0.3,15.6-8.3,16.6-8.9
		c1.1-0.6,2.1-2.4,0.1-2.4H11.2C9.3,17.9,10.3,19.7,11.4,20.3z M49.1,24.7c-1.3,0.7-16.3,8.6-17.1,8.9c-0.7,0.4-1.3,0.4-2,0.4
		s-1.3-0.1-2-0.4s-15.9-8.3-17.1-8.9C10,24.3,10,24.8,10,25.2c0,0.4,0,16.2,0,16.2c0,0.9,1.3,2.2,2.2,2.2h35.5c1,0,2.2-1.2,2.2-2.2
		c0,0,0-15.9,0-16.2C50,24.8,50,24.3,49.1,24.7z"/>
	<g>
		<path class="st0" d="M11.4,18.8c1.1,0.6,16.1,8.6,16.6,8.9c0.5,0.3,1.3,0.4,2,0.4s1.4-0.1,2-0.4c0.5-0.3,15.6-8.3,16.6-8.9
			c1.1-0.6,2.1-2.4,0.1-2.4H11.2C9.3,16.4,10.3,18.2,11.4,18.8z M49.1,23.2c-1.3,0.7-16.3,8.6-17.1,8.9c-0.7,0.4-1.3,0.4-2,0.4
			s-1.3-0.1-2-0.4s-15.9-8.3-17.1-8.9C10,22.8,10,23.3,10,23.8c0,0.4,0,16.2,0,16.2c0,0.9,1.3,2.2,2.2,2.2h35.5c1,0,2.2-1.2,2.2-2.2
			c0,0,0-15.9,0-16.2C50,23.3,50,22.8,49.1,23.2z"/>
	</g>
</g>
</svg>
